<svg width="59" height="58" viewBox="0 0 59 58" fill="none" xmlns="http://www.w3.org/2000/svg">
<path d="M27.3816 2.5602C28.741 1.98247 30.2703 1.98247 31.6297 2.5602L51.6465 11.0563C53.5269 11.8606 54.8863 13.6844 54.875 15.8594C54.8184 26.8024 50.3098 46.468 31.709 55.3719C30.3156 56.0403 28.6844 56.0403 27.291 55.3719C8.69023 46.4567 4.18163 26.7911 4.12499 15.8481C4.11366 13.6844 5.47304 11.8493 7.35351 11.045L27.3703 2.54888L27.3816 2.5602ZM32.332 0.883643C30.5195 0.11333 28.4805 0.11333 26.668 0.883643L6.65116 9.37974C4.15897 10.4333 2.30116 12.8915 2.31249 15.8594C2.36913 27.0969 6.99101 47.6575 26.5094 57.0032C28.4012 57.9094 30.5988 57.9094 32.4906 57.0032C52.0203 47.6575 56.6309 27.0969 56.6875 15.8594C56.6988 12.8915 54.841 10.4333 52.3488 9.37974L32.332 0.883643ZM41.0094 22.3844C41.3605 22.0333 41.3605 21.4555 41.0094 21.1043C40.6582 20.7532 40.0805 20.7532 39.7293 21.1043L25.875 34.97L19.2707 28.3657C18.9195 28.0145 18.3418 28.0145 17.9906 28.3657C17.6394 28.7168 17.6394 29.2946 17.9906 29.6458L25.2406 36.8958C25.5918 37.2469 26.1695 37.2469 26.5207 36.8958L41.0207 22.3958L41.0094 22.3844Z" fill="#171717"/>
</svg>