<svg width="50" height="44" viewBox="0 0 50 44" fill="none" xmlns="http://www.w3.org/2000/svg">
<g clip-path="url(#clip0_6377_943)">
<path d="M12.4999 0.6875C12.4999 1.06562 12.8062 1.375 13.1805 1.375H25.1497L1.80667 24.9477C1.54296 25.2141 1.54296 25.6523 1.80667 25.9188C2.07039 26.1852 2.50424 26.1852 2.76796 25.9188L26.111 2.34609V14.4375C26.111 14.8156 26.4173 15.125 26.7916 15.125C27.1659 15.125 27.4721 14.8156 27.4721 14.4375V0.6875C27.4721 0.309375 27.1659 0 26.7916 0H13.1805C12.8062 0 12.4999 0.309375 12.4999 0.6875ZM45.1666 4.125C45.8885 4.125 46.581 4.41473 47.0915 4.93046C47.602 5.44618 47.8888 6.14565 47.8888 6.875C47.8888 7.60435 47.602 8.30382 47.0915 8.81954C46.581 9.33527 45.8885 9.625 45.1666 9.625C44.4446 9.625 43.7522 9.33527 43.2417 8.81954C42.7312 8.30382 42.4443 7.60435 42.4443 6.875C42.4443 6.14565 42.7312 5.44618 43.2417 4.93046C43.7522 4.41473 44.4446 4.125 45.1666 4.125ZM45.1666 11C46.2495 11 47.2882 10.5654 48.0539 9.79182C48.8197 9.01823 49.2499 7.96902 49.2499 6.875C49.2499 5.78098 48.8197 4.73177 48.0539 3.95818C47.2882 3.1846 46.2495 2.75 45.1666 2.75C44.0836 2.75 43.045 3.1846 42.2792 3.95818C41.5134 4.73177 41.0832 5.78098 41.0832 6.875C41.0832 7.96902 41.5134 9.01823 42.2792 9.79182C43.045 10.5654 44.0836 11 45.1666 11ZM34.2777 15.125C34.9997 15.125 35.6921 15.4147 36.2026 15.9305C36.7131 16.4462 36.9999 17.1457 36.9999 17.875C36.9999 18.6043 36.7131 19.3038 36.2026 19.8195C35.6921 20.3353 34.9997 20.625 34.2777 20.625C33.5557 20.625 32.8633 20.3353 32.3528 19.8195C31.8423 19.3038 31.5555 18.6043 31.5555 17.875C31.5555 17.1457 31.8423 16.4462 32.3528 15.9305C32.8633 15.4147 33.5557 15.125 34.2777 15.125ZM34.2777 22C35.3606 22 36.3993 21.5654 37.165 20.7918C37.9308 20.0182 38.361 18.969 38.361 17.875C38.361 16.781 37.9308 15.7318 37.165 14.9582C36.3993 14.1846 35.3606 13.75 34.2777 13.75C33.1947 13.75 32.1561 14.1846 31.3903 14.9582C30.6246 15.7318 30.1943 16.781 30.1943 17.875C30.1943 18.969 30.6246 20.0182 31.3903 20.7918C32.1561 21.5654 33.1947 22 34.2777 22ZM31.5555 28.875C31.5555 28.1457 31.8423 27.4462 32.3528 26.9305C32.8633 26.4147 33.5557 26.125 34.2777 26.125C34.9997 26.125 35.6921 26.4147 36.2026 26.9305C36.7131 27.4462 36.9999 28.1457 36.9999 28.875C36.9999 29.6043 36.7131 30.3038 36.2026 30.8195C35.6921 31.3353 34.9997 31.625 34.2777 31.625C33.5557 31.625 32.8633 31.3353 32.3528 30.8195C31.8423 30.3038 31.5555 29.6043 31.5555 28.875ZM38.361 28.875C38.361 28.3333 38.2554 27.7969 38.0502 27.2964C37.845 26.796 37.5442 26.3412 37.165 25.9582C36.7859 25.5751 36.3357 25.2713 35.8403 25.064C35.3449 24.8567 34.8139 24.75 34.2777 24.75C33.7415 24.75 33.2105 24.8567 32.7151 25.064C32.2196 25.2713 31.7695 25.5751 31.3903 25.9582C31.0112 26.3412 30.7104 26.796 30.5052 27.2964C30.3 27.7969 30.1943 28.3333 30.1943 28.875C30.1943 29.4167 30.3 29.9531 30.5052 30.4536C30.7104 30.954 31.0112 31.4088 31.3903 31.7918C31.7695 32.1749 32.2196 32.4787 32.7151 32.686C33.2105 32.8933 33.7415 33 34.2777 33C34.8139 33 35.3449 32.8933 35.8403 32.686C36.3357 32.4787 36.7859 32.1749 37.165 31.7918C37.5442 31.4088 37.845 30.954 38.0502 30.4536C38.2554 29.9531 38.361 29.4167 38.361 28.875ZM34.2777 37.125C34.9997 37.125 35.6921 37.4147 36.2026 37.9305C36.7131 38.4462 36.9999 39.1457 36.9999 39.875C36.9999 40.6043 36.7131 41.3038 36.2026 41.8195C35.6921 42.3353 34.9997 42.625 34.2777 42.625C33.5557 42.625 32.8633 42.3353 32.3528 41.8195C31.8423 41.3038 31.5555 40.6043 31.5555 39.875C31.5555 39.1457 31.8423 38.4462 32.3528 37.9305C32.8633 37.4147 33.5557 37.125 34.2777 37.125ZM34.2777 44C35.3606 44 36.3993 43.5654 37.165 42.7918C37.9308 42.0182 38.361 40.969 38.361 39.875C38.361 38.781 37.9308 37.7318 37.165 36.9582C36.3993 36.1846 35.3606 35.75 34.2777 35.75C33.1947 35.75 32.1561 36.1846 31.3903 36.9582C30.6246 37.7318 30.1943 38.781 30.1943 39.875C30.1943 40.969 30.6246 42.0182 31.3903 42.7918C32.1561 43.5654 33.1947 44 34.2777 44ZM45.1666 37.125C45.8885 37.125 46.581 37.4147 47.0915 37.9305C47.602 38.4462 47.8888 39.1457 47.8888 39.875C47.8888 40.6043 47.602 41.3038 47.0915 41.8195C46.581 42.3353 45.8885 42.625 45.1666 42.625C44.4446 42.625 43.7522 42.3353 43.2417 41.8195C42.7312 41.3038 42.4443 40.6043 42.4443 39.875C42.4443 39.1457 42.7312 38.4462 43.2417 37.9305C43.7522 37.4147 44.4446 37.125 45.1666 37.125ZM45.1666 44C46.2495 44 47.2882 43.5654 48.0539 42.7918C48.8197 42.0182 49.2499 40.969 49.2499 39.875C49.2499 38.781 48.8197 37.7318 48.0539 36.9582C47.2882 36.1846 46.2495 35.75 45.1666 35.75C44.0836 35.75 43.045 36.1846 42.2792 36.9582C41.5134 37.7318 41.0832 38.781 41.0832 39.875C41.0832 40.969 41.5134 42.0182 42.2792 42.7918C43.045 43.5654 44.0836 44 45.1666 44ZM20.6666 28.875C20.6666 28.1457 20.9534 27.4462 21.4639 26.9305C21.9744 26.4147 22.6668 26.125 23.3888 26.125C24.1108 26.125 24.8032 26.4147 25.3137 26.9305C25.8242 27.4462 26.111 28.1457 26.111 28.875C26.111 29.6043 25.8242 30.3038 25.3137 30.8195C24.8032 31.3353 24.1108 31.625 23.3888 31.625C22.6668 31.625 21.9744 31.3353 21.4639 30.8195C20.9534 30.3038 20.6666 29.6043 20.6666 28.875ZM27.4721 28.875C27.4721 27.781 27.0419 26.7318 26.2761 25.9582C25.5104 25.1846 24.4718 24.75 23.3888 24.75C22.3058 24.75 21.2672 25.1846 20.5014 25.9582C19.7357 26.7318 19.3055 27.781 19.3055 28.875C19.3055 29.969 19.7357 31.0182 20.5014 31.7918C21.2672 32.5654 22.3058 33 23.3888 33C24.4718 33 25.5104 32.5654 26.2761 31.7918C27.0419 31.0182 27.4721 29.969 27.4721 28.875ZM23.3888 37.125C24.1108 37.125 24.8032 37.4147 25.3137 37.9305C25.8242 38.4462 26.111 39.1457 26.111 39.875C26.111 40.6043 25.8242 41.3038 25.3137 41.8195C24.8032 42.3353 24.1108 42.625 23.3888 42.625C22.6668 42.625 21.9744 42.3353 21.4639 41.8195C20.9534 41.3038 20.6666 40.6043 20.6666 39.875C20.6666 39.1457 20.9534 38.4462 21.4639 37.9305C21.9744 37.4147 22.6668 37.125 23.3888 37.125ZM23.3888 44C24.4718 44 25.5104 43.5654 26.2761 42.7918C27.0419 42.0182 27.4721 40.969 27.4721 39.875C27.4721 38.781 27.0419 37.7318 26.2761 36.9582C25.5104 36.1846 24.4718 35.75 23.3888 35.75C22.3058 35.75 21.2672 36.1846 20.5014 36.9582C19.7357 37.7318 19.3055 38.781 19.3055 39.875C19.3055 40.969 19.7357 42.0182 20.5014 42.7918C21.2672 43.5654 22.3058 44 23.3888 44ZM9.77768 39.875C9.77768 39.1457 10.0645 38.4462 10.575 37.9305C11.0855 37.4147 11.7779 37.125 12.4999 37.125C13.2219 37.125 13.9143 37.4147 14.4248 37.9305C14.9353 38.4462 15.2221 39.1457 15.2221 39.875C15.2221 40.6043 14.9353 41.3038 14.4248 41.8195C13.9143 42.3353 13.2219 42.625 12.4999 42.625C11.7779 42.625 11.0855 42.3353 10.575 41.8195C10.0645 41.3038 9.77768 40.6043 9.77768 39.875ZM16.5832 39.875C16.5832 38.781 16.153 37.7318 15.3873 36.9582C14.6215 36.1846 13.5829 35.75 12.4999 35.75C11.4169 35.75 10.3783 36.1846 9.61255 36.9582C8.84678 37.7318 8.41657 38.781 8.41657 39.875C8.41657 40.969 8.84678 42.0182 9.61255 42.7918C10.3783 43.5654 11.4169 44 12.4999 44C13.5829 44 14.6215 43.5654 15.3873 42.7918C16.153 42.0182 16.5832 40.969 16.5832 39.875ZM45.1666 26.125C45.8885 26.125 46.581 26.4147 47.0915 26.9305C47.602 27.4462 47.8888 28.1457 47.8888 28.875C47.8888 29.6043 47.602 30.3038 47.0915 30.8195C46.581 31.3353 45.8885 31.625 45.1666 31.625C44.4446 31.625 43.7522 31.3353 43.2417 30.8195C42.7312 30.3038 42.4443 29.6043 42.4443 28.875C42.4443 28.1457 42.7312 27.4462 43.2417 26.9305C43.7522 26.4147 44.4446 26.125 45.1666 26.125ZM45.1666 33C46.2495 33 47.2882 32.5654 48.0539 31.7918C48.8197 31.0182 49.2499 29.969 49.2499 28.875C49.2499 27.781 48.8197 26.7318 48.0539 25.9582C47.2882 25.1846 46.2495 24.75 45.1666 24.75C44.0836 24.75 43.045 25.1846 42.2792 25.9582C41.5134 26.7318 41.0832 27.781 41.0832 28.875C41.0832 29.969 41.5134 31.0182 42.2792 31.7918C43.045 32.5654 44.0836 33 45.1666 33ZM42.4443 17.875C42.4443 17.1457 42.7312 16.4462 43.2417 15.9305C43.7522 15.4147 44.4446 15.125 45.1666 15.125C45.8885 15.125 46.581 15.4147 47.0915 15.9305C47.602 16.4462 47.8888 17.1457 47.8888 17.875C47.8888 18.6043 47.602 19.3038 47.0915 19.8195C46.581 20.3353 45.8885 20.625 45.1666 20.625C44.4446 20.625 43.7522 20.3353 43.2417 19.8195C42.7312 19.3038 42.4443 18.6043 42.4443 17.875ZM49.2499 17.875C49.2499 16.781 48.8197 15.7318 48.0539 14.9582C47.2882 14.1846 46.2495 13.75 45.1666 13.75C44.0836 13.75 43.045 14.1846 42.2792 14.9582C41.5134 15.7318 41.0832 16.781 41.0832 17.875C41.0832 18.969 41.5134 20.0182 42.2792 20.7918C43.045 21.5654 44.0836 22 45.1666 22C46.2495 22 47.2882 21.5654 48.0539 20.7918C48.8197 20.0182 49.2499 18.969 49.2499 17.875Z" fill="#CFC180"/>
</g>
<defs>
<clipPath id="clip0_6377_943">
<rect width="49" height="44" fill="white" transform="translate(0.25)"/>
</clipPath>
</defs>
</svg>