<svg width="59" height="58" viewBox="0 0 59 58" fill="none" xmlns="http://www.w3.org/2000/svg">
<g clip-path="url(#clip0_6377_951)">
<path d="M12.8031 21.6934C13.2336 21.2516 13.6754 20.8324 14.1285 20.4246L2.72109 3.31914C2.61914 3.16055 2.5625 2.96797 2.5625 2.78672C2.5625 2.2543 2.99297 1.8125 3.53672 1.8125H16.8246C17.459 1.8125 18.048 2.14102 18.3766 2.69609L25.6719 14.8512C26.3176 14.7379 26.9746 14.6473 27.6316 14.5906L19.9285 1.75586C19.2715 0.668359 18.0934 0 16.8246 0H3.53672C1.99609 0 0.75 1.24609 0.75 2.78672C0.75 3.33047 0.908594 3.87422 1.21445 4.32734L12.8031 21.6934ZM31.8684 14.5906C32.5254 14.6473 33.1824 14.7379 33.8281 14.8512L41.1234 2.69609C41.452 2.15234 42.041 1.8125 42.6754 1.8125H55.9633C56.4957 1.8125 56.9375 2.24297 56.9375 2.78672C56.9375 2.9793 56.8809 3.16055 56.7789 3.31914L45.3715 20.4246C45.8359 20.8324 46.2777 21.2516 46.6969 21.6934L58.2855 4.32734C58.5914 3.87422 58.75 3.33047 58.75 2.78672C58.75 1.24609 57.5039 0 55.9633 0H42.6754C41.4066 0 40.2172 0.668359 39.5715 1.75586L31.8684 14.5906ZM29.75 19.9375C34.557 19.9375 39.1672 21.8471 42.5663 25.2462C45.9654 28.6453 47.875 33.2555 47.875 38.0625C47.875 42.8695 45.9654 47.4797 42.5663 50.8788C39.1672 54.2779 34.557 56.1875 29.75 56.1875C24.943 56.1875 20.3328 54.2779 16.9337 50.8788C13.5346 47.4797 11.625 42.8695 11.625 38.0625C11.625 33.2555 13.5346 28.6453 16.9337 25.2462C20.3328 21.8471 24.943 19.9375 29.75 19.9375ZM29.75 58C35.0378 58 40.1089 55.8994 43.8479 52.1604C47.5869 48.4214 49.6875 43.3503 49.6875 38.0625C49.6875 32.7747 47.5869 27.7036 43.8479 23.9646C40.1089 20.2256 35.0378 18.125 29.75 18.125C24.4622 18.125 19.3911 20.2256 15.6521 23.9646C11.9131 27.7036 9.8125 32.7747 9.8125 38.0625C9.8125 43.3503 11.9131 48.4214 15.6521 52.1604C19.3911 55.8994 24.4622 58 29.75 58ZM33.5449 32.8402L31.3699 28.4336C30.7016 27.0855 28.7871 27.0855 28.1188 28.4336L25.9437 32.8402L21.084 33.5426C19.6 33.7578 18.9996 35.5816 20.0758 36.6352L23.5875 40.0563L22.7605 44.8934C22.5113 46.3773 24.0633 47.4988 25.3887 46.8078L29.75 44.5195L34.1 46.8078C35.4254 47.5102 36.9887 46.3773 36.7281 44.8934L35.9012 40.0563L39.4129 36.6352C40.4891 35.5816 39.9 33.7578 38.4047 33.5426L33.5449 32.8402ZM29.75 29.2379L31.925 33.6445C32.1855 34.177 32.6953 34.5508 33.2844 34.6414L38.1441 35.3438L34.6324 38.7648C34.202 39.184 34.0094 39.7844 34.1113 40.3734L34.9383 45.2105L30.5883 42.9223C30.0559 42.6391 29.4328 42.6391 28.9004 42.9223L24.5617 45.1992L25.3887 40.3621C25.4906 39.773 25.298 39.1727 24.8676 38.7535L21.3559 35.3324L26.2156 34.6301C26.8047 34.5395 27.3145 34.177 27.575 33.6332L29.75 29.2379Z" fill="#CFC180"/>
</g>
<defs>
<clipPath id="clip0_6377_951">
<rect width="58" height="58" fill="white" transform="translate(0.75)"/>
</clipPath>
</defs>
</svg>