<svg width="59" height="58" viewBox="0 0 59 58" fill="none" xmlns="http://www.w3.org/2000/svg">
<path d="M12.5531 21.6934C12.9836 21.2516 13.4254 20.8324 13.8785 20.4246L2.47109 3.31914C2.36914 3.16055 2.3125 2.96797 2.3125 2.78672C2.3125 2.2543 2.74297 1.8125 3.28672 1.8125H16.5746C17.209 1.8125 17.798 2.14102 18.1266 2.69609L25.4219 14.8512C26.0676 14.7379 26.7246 14.6473 27.3816 14.5906L19.6785 1.75586C19.0215 0.668359 17.8434 0 16.5746 0H3.28672C1.74609 0 0.5 1.24609 0.5 2.78672C0.5 3.33047 0.658594 3.87422 0.964453 4.32734L12.5531 21.6934ZM31.6184 14.5906C32.2754 14.6473 32.9324 14.7379 33.5781 14.8512L40.8734 2.69609C41.202 2.15234 41.791 1.8125 42.4254 1.8125H55.7133C56.2457 1.8125 56.6875 2.24297 56.6875 2.78672C56.6875 2.9793 56.6309 3.16055 56.5289 3.31914L45.1215 20.4246C45.5859 20.8324 46.0277 21.2516 46.4469 21.6934L58.0355 4.32734C58.3414 3.87422 58.5 3.33047 58.5 2.78672C58.5 1.24609 57.2539 0 55.7133 0H42.4254C41.1566 0 39.9672 0.668359 39.3215 1.75586L31.6184 14.5906ZM29.5 19.9375C34.307 19.9375 38.9172 21.8471 42.3163 25.2462C45.7154 28.6453 47.625 33.2555 47.625 38.0625C47.625 42.8695 45.7154 47.4797 42.3163 50.8788C38.9172 54.2779 34.307 56.1875 29.5 56.1875C24.693 56.1875 20.0828 54.2779 16.6837 50.8788C13.2846 47.4797 11.375 42.8695 11.375 38.0625C11.375 33.2555 13.2846 28.6453 16.6837 25.2462C20.0828 21.8471 24.693 19.9375 29.5 19.9375ZM29.5 58C34.7878 58 39.8589 55.8994 43.5979 52.1604C47.3369 48.4214 49.4375 43.3503 49.4375 38.0625C49.4375 32.7747 47.3369 27.7036 43.5979 23.9646C39.8589 20.2256 34.7878 18.125 29.5 18.125C24.2122 18.125 19.1411 20.2256 15.4021 23.9646C11.6631 27.7036 9.5625 32.7747 9.5625 38.0625C9.5625 43.3503 11.6631 48.4214 15.4021 52.1604C19.1411 55.8994 24.2122 58 29.5 58ZM33.2949 32.8402L31.1199 28.4336C30.4516 27.0855 28.5371 27.0855 27.8688 28.4336L25.6937 32.8402L20.834 33.5426C19.35 33.7578 18.7496 35.5816 19.8258 36.6352L23.3375 40.0563L22.5105 44.8934C22.2613 46.3773 23.8133 47.4988 25.1387 46.8078L29.5 44.5195L33.85 46.8078C35.1754 47.5102 36.7387 46.3773 36.4781 44.8934L35.6512 40.0563L39.1629 36.6352C40.2391 35.5816 39.65 33.7578 38.1547 33.5426L33.2949 32.8402ZM29.5 29.2379L31.675 33.6445C31.9355 34.177 32.4453 34.5508 33.0344 34.6414L37.8941 35.3438L34.3824 38.7648C33.952 39.184 33.7594 39.7844 33.8613 40.3734L34.6883 45.2105L30.3383 42.9223C29.8059 42.6391 29.1828 42.6391 28.6504 42.9223L24.3117 45.1992L25.1387 40.3621C25.2406 39.773 25.048 39.1727 24.6176 38.7535L21.1059 35.3324L25.9656 34.6301C26.5547 34.5395 27.0645 34.177 27.325 33.6332L29.5 29.2379Z" fill="#171717"/>
</svg>