<svg width="66" height="58" viewBox="0 0 66 58" fill="none" xmlns="http://www.w3.org/2000/svg">
<g clip-path="url(#clip0_6377_947)">
<path d="M36.2292 23.0754L49.7032 34.6641C50.0643 34.4602 50.4254 34.2336 50.7639 33.9957C50.9445 33.8711 51.1137 33.7578 51.3056 33.6559L38.915 22.9961L37.4028 21.7047C38.0009 21.4102 38.6216 21.1496 39.2648 20.923C41.0478 20.2887 42.9775 19.9488 44.9861 19.9488H52.2084C54.7023 19.9488 56.7223 17.9211 56.7223 15.4176C56.7223 12.9141 54.7023 10.8863 52.2084 10.8863H44.9861C31.0382 10.8863 19.6519 21.8293 18.8507 35.627C19.4488 35.8422 20.0469 36.0121 20.6337 36.1367C21.1754 23.0867 31.8733 12.6875 44.9861 12.6875H52.2084C53.7092 12.6875 54.9167 13.8996 54.9167 15.4062C54.9167 16.9129 53.7092 18.125 52.2084 18.125H44.9861C41.9844 18.125 39.1407 18.8273 36.6129 20.0734C36.0712 20.3453 35.6988 20.8664 35.6198 21.4781C35.5408 22.0898 35.7778 22.6789 36.2405 23.0754H36.2292ZM17 18.125C17 19.5671 16.4293 20.9502 15.4135 21.9699C14.3977 22.9896 13.02 23.5625 11.5834 23.5625C10.1468 23.5625 8.76902 22.9896 7.7532 21.9699C6.73738 20.9502 6.1667 19.5671 6.1667 18.125C6.1667 16.6829 6.73738 15.2998 7.7532 14.2801C8.76902 13.2604 10.1468 12.6875 11.5834 12.6875C13.02 12.6875 14.3977 13.2604 15.4135 14.2801C16.4293 15.2998 17 16.6829 17 18.125ZM11.5834 25.375C13.4988 25.375 15.3358 24.6112 16.6902 23.2515C18.0447 21.8919 18.8056 20.0478 18.8056 18.125C18.8056 16.2022 18.0447 14.3581 16.6902 12.9985C15.3358 11.6388 13.4988 10.875 11.5834 10.875C9.66791 10.875 7.83091 11.6388 6.47648 12.9985C5.12205 14.3581 4.36114 16.2022 4.36114 18.125C4.36114 20.0478 5.12205 21.8919 6.47648 23.2515C7.83091 24.6112 9.66791 25.375 11.5834 25.375ZM33.9948 38.4477C33.6563 37.9605 32.8438 37.9605 32.5052 38.4477C31.6025 39.7164 30.5304 40.8719 29.3907 41.9254C27.4497 43.7039 24.9558 45.3125 22.4167 45.3125C19.8776 45.3125 17.3837 43.7039 15.4427 41.9254C14.303 40.8832 13.2196 39.7164 12.3282 38.4477C12.1589 38.2098 11.8881 38.0625 11.5834 38.0625C11.2787 38.0625 11.0078 38.2098 10.8386 38.4477C10.0148 39.6145 9.0443 40.668 8.01739 41.6535C6.24569 43.3301 3.94361 44.9613 1.53996 45.2672C1.04343 45.3352 0.693607 45.7883 0.761315 46.2754C0.829023 46.7625 1.28041 47.125 1.76566 47.057C4.75611 46.6832 7.40802 44.7121 9.25871 42.9676C10.2518 42.0273 11.053 41.1098 11.5834 40.4527C12.1702 41.1777 13.0729 42.2199 14.224 43.2621C16.2552 45.1086 19.178 47.125 22.4167 47.125C25.6554 47.125 28.5782 45.1086 30.6094 43.2621C31.7604 42.2199 32.6632 41.1777 33.25 40.4527C33.8368 41.1777 34.7509 42.2199 35.8907 43.2621C37.9219 45.1086 40.8447 47.125 44.0834 47.125C47.3221 47.125 50.2448 45.1086 52.2761 43.2621C53.4271 42.2199 54.3299 41.1777 54.9167 40.4527C55.4471 41.1098 56.2483 42.0273 57.2414 42.9676C59.092 44.7121 61.744 46.6832 64.7344 47.057C65.2309 47.125 65.6823 46.7625 65.7387 46.2754C65.7952 45.7883 65.4453 45.3238 64.9601 45.2672C62.5565 44.9613 60.2544 43.3301 58.4827 41.6535C57.4558 40.6793 56.4853 39.6145 55.6615 38.4477C55.4922 38.2098 55.2214 38.0625 54.9167 38.0625C54.612 38.0625 54.3412 38.2098 54.1719 38.4477C53.2804 39.7164 52.1971 40.8832 51.0573 41.9254C49.1163 43.7039 46.6224 45.3125 44.0834 45.3125C41.5443 45.3125 39.0504 43.7039 37.1094 41.9254C35.9697 40.8832 34.8976 39.7164 33.9948 38.4477Z" fill="#CFC180"/>
</g>
<defs>
<clipPath id="clip0_6377_947">
<rect width="65" height="58" fill="white" transform="translate(0.75)"/>
</clipPath>
</defs>
</svg>