<svg width="61" height="49" viewBox="0 0 61 49" fill="none" xmlns="http://www.w3.org/2000/svg">
<g clip-path="url(#clip0_6377_955)">
<path d="M8.5 8.42188C8.5 7.40659 8.89509 6.43289 9.59835 5.71498C10.3016 4.99707 11.2554 4.59375 12.25 4.59375C13.2446 4.59375 14.1984 4.99707 14.9017 5.71498C15.6049 6.43289 16 7.40659 16 8.42188C16 9.43716 15.6049 10.4109 14.9017 11.1288C14.1984 11.8467 13.2446 12.25 12.25 12.25C11.2554 12.25 10.3016 11.8467 9.59835 11.1288C8.89509 10.4109 8.5 9.43716 8.5 8.42188ZM17.5 8.42188C17.5 7.00048 16.9469 5.6373 15.9623 4.63222C14.9777 3.62715 13.6424 3.0625 12.25 3.0625C10.8576 3.0625 9.52226 3.62715 8.53769 4.63222C7.55312 5.6373 7 7.00048 7 8.42188C7 9.84327 7.55312 11.2064 8.53769 12.2115C9.52226 13.2166 10.8576 13.7812 12.25 13.7812C13.6424 13.7812 14.9777 13.2166 15.9623 12.2115C16.9469 11.2064 17.5 9.84327 17.5 8.42188ZM44.5 8.42188C44.5 7.40659 44.8951 6.43289 45.5984 5.71498C46.3016 4.99707 47.2554 4.59375 48.25 4.59375C49.2446 4.59375 50.1984 4.99707 50.9017 5.71498C51.6049 6.43289 52 7.40659 52 8.42188C52 9.43716 51.6049 10.4109 50.9017 11.1288C50.1984 11.8467 49.2446 12.25 48.25 12.25C47.2554 12.25 46.3016 11.8467 45.5984 11.1288C44.8951 10.4109 44.5 9.43716 44.5 8.42188ZM53.5 8.42188C53.5 7.00048 52.9469 5.6373 51.9623 4.63222C50.9777 3.62715 49.6424 3.0625 48.25 3.0625C46.8576 3.0625 45.5223 3.62715 44.5377 4.63222C43.5531 5.6373 43 7.00048 43 8.42188C43 9.84327 43.5531 11.2064 44.5377 12.2115C45.5223 13.2166 46.8576 13.7812 48.25 13.7812C49.6424 13.7812 50.9777 13.2166 51.9623 12.2115C52.9469 11.2064 53.5 9.84327 53.5 8.42188ZM6.25 24.5C5.8375 24.5 5.5 24.8445 5.5 25.2656V34.6637C3.23125 33.0463 1.75 30.357 1.75 27.3232C1.75 22.3754 5.67813 18.375 10.5156 18.375H13.975C15.7375 18.375 17.3781 18.9109 18.7562 19.8201C19.1031 19.4373 19.4688 19.0736 19.8531 18.7291C18.1844 17.5424 16.1594 16.8438 13.975 16.8438H10.5156C4.84375 16.8438 0.25 21.5332 0.25 27.3232C0.25 31.2566 2.36875 34.6732 5.5 36.4725V41.3438C5.5 43.0377 6.84062 44.4062 8.5 44.4062H16C17.6594 44.4062 19 43.0377 19 41.3438V38.6258C18.4469 38.0324 17.9406 37.4008 17.5 36.7117V41.3438C17.5 42.1859 16.825 42.875 16 42.875H8.5C7.675 42.875 7 42.1859 7 41.3438V25.2656C7 24.8445 6.6625 24.5 6.25 24.5ZM41.5 41.3438C41.5 43.0377 42.8406 44.4062 44.5 44.4062H52C53.6594 44.4062 55 43.0377 55 41.3438V36.4725C58.1312 34.6828 60.25 31.2566 60.25 27.3232C60.25 21.5332 55.6562 16.8438 49.9844 16.8438H46.5156C44.3312 16.8438 42.3062 17.5424 40.6375 18.7291C41.0219 19.0736 41.3875 19.4373 41.7344 19.8201C43.1125 18.9014 44.7531 18.375 46.5156 18.375H49.975C54.8219 18.375 58.7406 22.385 58.7406 27.3232C58.7406 30.357 57.2594 33.0463 54.9906 34.6637V25.2656C54.9906 24.8445 54.6531 24.5 54.2406 24.5C53.8281 24.5 53.4906 24.8445 53.4906 25.2656V41.3438C53.4906 42.1859 52.8156 42.875 51.9906 42.875H44.5C43.675 42.875 43 42.1859 43 41.3438V36.7117C42.5594 37.3912 42.0531 38.0324 41.5 38.6258V41.3438ZM25.75 9.1875C25.75 7.96916 26.2241 6.80072 27.068 5.93923C27.9119 5.07773 29.0565 4.59375 30.25 4.59375C31.4435 4.59375 32.5881 5.07773 33.432 5.93923C34.2759 6.80072 34.75 7.96916 34.75 9.1875C34.75 10.4058 34.2759 11.5743 33.432 12.4358C32.5881 13.2973 31.4435 13.7812 30.25 13.7812C29.0565 13.7812 27.9119 13.2973 27.068 12.4358C26.2241 11.5743 25.75 10.4058 25.75 9.1875ZM36.25 9.1875C36.25 7.56305 35.6179 6.00513 34.4926 4.85647C33.3674 3.70781 31.8413 3.0625 30.25 3.0625C28.6587 3.0625 27.1326 3.70781 26.0074 4.85647C24.8821 6.00513 24.25 7.56305 24.25 9.1875C24.25 10.812 24.8821 12.3699 26.0074 13.5185C27.1326 14.6672 28.6587 15.3125 30.25 15.3125C31.8413 15.3125 33.3674 14.6672 34.4926 13.5185C35.6179 12.3699 36.25 10.812 36.25 9.1875ZM24.25 26.0312C23.8375 26.0312 23.5 26.3758 23.5 26.7969V36.1949C21.2313 34.5775 19.75 31.8883 19.75 28.8545C19.75 23.9066 23.6781 19.9062 28.5156 19.9062H31.975C36.8219 19.9062 40.7406 23.9162 40.7406 28.8545C40.7406 31.8883 39.2594 34.5775 36.9906 36.1949V26.7969C36.9906 26.3758 36.6531 26.0312 36.2406 26.0312C35.8281 26.0312 35.4906 26.3758 35.4906 26.7969V42.875C35.4906 43.7172 34.8156 44.4062 33.9906 44.4062H26.5C25.675 44.4062 25 43.7172 25 42.875V26.7969C25 26.3758 24.6625 26.0312 24.25 26.0312ZM23.5 38.0037V42.875C23.5 44.5689 24.8406 45.9375 26.5 45.9375H34C35.6594 45.9375 37 44.5689 37 42.875V38.0037C40.1312 36.2141 42.25 32.7879 42.25 28.8545C42.25 23.0645 37.6562 18.375 31.9844 18.375H28.5156C22.8438 18.375 18.25 23.0645 18.25 28.8545C18.25 32.7879 20.3687 36.2045 23.5 38.0037Z" fill="#CFC180"/>
</g>
<defs>
<clipPath id="clip0_6377_955">
<rect width="60" height="49" fill="white" transform="translate(0.25)"/>
</clipPath>
</defs>
</svg>